<?xml version="1.0" encoding="UTF-8"?>
<svg version="1.1" xmlns="http://www.w3.org/2000/svg" width="1027" height="361">
<path d="M0 0 C0.91394531 0.350625 1.82789063 0.70125 2.76953125 1.0625 C13.01820751 5.59647659 22.67819268 14.42713378 27.21484375 24.76953125 C32.83572961 39.71188618 33.40075576 57.21138819 27 72 C26.30583984 73.65128906 26.30583984 73.65128906 25.59765625 75.3359375 C18.94141742 89.82017359 8.60840903 101.83614812 -2.34033203 113.25927734 C-4.177952 115.1866428 -5.99448034 117.13252946 -7.80859375 119.08203125 C-9.12229422 120.49228216 -10.43609501 121.90243964 -11.75 123.3125 C-12.35175049 123.95832031 -12.95350098 124.60414063 -13.57348633 125.26953125 C-17.95957439 129.95122306 -22.45738078 134.45738078 -27 139 C4.68 139.495 4.68 139.495 37 140 C37 152.87 37 165.74 37 179 C14.17332086 179.22576256 -8.65245406 179.40995849 -31.47996616 179.51812172 C-42.07925453 179.56967938 -52.67779989 179.63996468 -63.27661133 179.75439453 C-72.51493939 179.85408838 -81.75272939 179.91858682 -90.99158043 179.94088495 C-95.88353361 179.95391941 -100.77394758 179.9845313 -105.66540718 180.05730057 C-110.27137431 180.12526638 -114.87517122 180.14610042 -119.48159218 180.13107681 C-121.1703446 180.13382428 -122.85917077 180.15367128 -124.54748917 180.19205475 C-137.28760803 180.46744992 -137.28760803 180.46744992 -141.48547173 176.87005234 C-143.30358088 174.31583714 -144.65848192 171.82799677 -146 169 C-147.04128404 167.35054044 -148.10009525 165.71188576 -149.18359375 164.08984375 C-150.27041365 162.37377737 -151.3549664 160.6562735 -152.4375 158.9375 C-153.65201313 157.01932187 -154.86687147 155.10136229 -156.08203125 153.18359375 C-156.71447754 152.18440918 -157.34692383 151.18522461 -157.99853516 150.15576172 C-161.52576132 144.5942924 -165.07525702 139.04710954 -168.625 133.5 C-169.63711548 131.91626587 -169.63711548 131.91626587 -170.66967773 130.30053711 C-173.73822768 125.50478869 -176.81572712 120.71983594 -180 116 C-183.78734321 119.11288483 -187.09542033 122.02531203 -190 126 C-190.66 126 -191.32 126 -192 126 C-192 143.49 -192 160.98 -192 179 C-207.18 179 -222.36 179 -238 179 C-238 119.27 -238 59.54 -238 -2 C-222.82 -2 -207.64 -2 -192 -2 C-191.67 18.79 -191.34 39.58 -191 61 C-187.04 55.72 -183.08 50.44 -179 45 C-176.69741884 42.01164493 -174.39113433 39.03004679 -172.0625 36.0625 C-167.40959639 30.1044423 -162.77971042 24.12998844 -158.1875 18.125 C-157.69709229 17.4844165 -157.20668457 16.84383301 -156.70141602 16.18383789 C-156.21600342 15.54824951 -155.73059082 14.91266113 -155.23046875 14.2578125 C-154.6991333 13.60876953 -154.16779785 12.95972656 -153.62036133 12.29101562 C-151.8542675 9.96361373 -151.8542675 9.96361373 -150.65112305 6.84960938 C-148.65931668 2.94828128 -146.89716739 0.05502027 -143 -2 C-134.03371662 -3.95066123 -124.60710825 -3.1861472 -115.49542236 -2.82397461 C-112.05707353 -2.70037883 -108.61767228 -2.64623852 -105.17773438 -2.5859375 C-98.44907096 -2.45404907 -91.72511725 -2.2536026 -85 -2 C-86.77551043 0.99458475 -88.53068791 3.81195734 -90.75 6.49609375 C-91.27013672 7.12966797 -91.79027344 7.76324219 -92.32617188 8.41601562 C-92.87853516 9.08310547 -93.43089844 9.75019531 -94 10.4375 C-95.17802252 11.87292766 -96.35509045 13.30913921 -97.53125 14.74609375 C-98.41103516 15.82093018 -98.41103516 15.82093018 -99.30859375 16.91748047 C-101.74367745 19.91564213 -104.12537308 22.95388135 -106.5 26 C-110.44151093 31.0487985 -114.45031778 36.03757943 -118.5 41 C-123.01928901 46.53906688 -127.47927322 52.11847965 -131.88208008 57.75048828 C-137.19777833 64.54575348 -142.60022844 71.27148884 -148 78 C-146.42142739 82.55256852 -143.95329156 86.38377679 -141.3125 90.375 C-140.83627197 91.10251465 -140.36004395 91.8300293 -139.86938477 92.57958984 C-138.81920344 94.18370378 -137.76727745 95.7866765 -136.71386719 97.38867188 C-134.89806762 100.15530894 -133.09252153 102.9284291 -131.2890625 105.703125 C-124.78059715 115.71397799 -118.23810911 125.69948449 -111.59228516 135.61962891 C-108.26598371 140.59225066 -104.95053411 145.57212721 -101.63272095 150.55041504 C-99.61742138 153.57417123 -97.60166608 156.59762355 -95.5859375 159.62109375 C-93.79296875 162.31054688 -93.79296875 162.31054688 -92 165 C-92.07863281 163.85144531 -92.15726563 162.70289063 -92.23828125 161.51953125 C-92.63168769 148.41824785 -92.63168769 148.41824785 -88.28515625 143.19140625 C-85.54902137 140.37110751 -82.58608943 137.82798891 -79.55615234 135.32958984 C-77.54985249 133.61539013 -75.87063954 131.71589893 -74.1875 129.6875 C-71.28539188 126.26946155 -68.16245955 123.14457556 -64.96875 120 C-63.06013545 118.06108998 -61.27289448 116.06300449 -59.5 114 C-57.10323412 111.21103607 -54.62040609 108.58009215 -52 106 C-48.84784855 102.88995745 -45.913171 99.67174083 -43.03515625 96.30859375 C-41.46900205 94.53201576 -39.88107159 92.80909188 -38.24609375 91.09765625 C-21.57445596 73.93324015 -21.57445596 73.93324015 -14.5 51.9375 C-14.70548605 46.56746449 -15.59219375 42.24910841 -19 38 C-23.83828656 34.31368643 -29.1473232 34.30416058 -35 35 C-39.7467417 36.67014986 -42.28265442 38.78342927 -45 43 C-48.14565985 49.75734338 -48.27690883 54.04599714 -49 62 C-63.85 62 -78.7 62 -94 62 C-94 42.88186276 -90.73962033 28.35068707 -77.40234375 14.34765625 C-57.43898949 -5.16124767 -26.02779935 -10.13117926 0 0 Z " fill="#005AFE" transform="translate(522,37)"/>
<path d="M0 0 C1.35219312 1.14475441 2.68654148 2.31100227 4 3.5 C4.99 4.35271484 4.99 4.35271484 6 5.22265625 C22.22446548 20.14789695 30.1527914 43.3787215 31.16113281 64.9465332 C31.52359905 96.05751626 29.97417415 125.35020863 7.33984375 149.22265625 C-0.00988297 156.37606306 -7.63182678 161.33781719 -17 165.5 C-17.69867187 165.81839844 -18.39734375 166.13679687 -19.1171875 166.46484375 C-36.90196171 173.88131598 -59.5942278 172.07555887 -77.1875 165.25 C-91.6864439 158.73987817 -104.18657217 148.52651503 -112 134.5 C-112.76570312 133.13101563 -112.76570312 133.13101563 -113.546875 131.734375 C-127.8667174 104.654277 -128.82793938 68.40092519 -120.3203125 39.19140625 C-112.60983265 17.63399958 -99.56558977 1.19474682 -78.8828125 -9.04296875 C-53.61862298 -20.23139554 -22.00283804 -16.51159619 0 0 Z M-67.875 34.25 C-80.33885792 50.0785144 -79.48031527 73.98095498 -77.77294922 93.03369141 C-76.44108861 103.93991503 -73.46049397 116.93955858 -65 124.5 C-56.40141303 130.1624841 -48.9106774 131.96494026 -38.78515625 130.08984375 C-32.19897581 128.12051059 -26.52000773 123.13434641 -22.6484375 117.55078125 C-16.4564039 105.89935926 -15.77336625 93.24629153 -15.70483398 80.32446289 C-15.69340073 78.83250377 -15.67308872 77.34058269 -15.64331055 75.84887695 C-15.34216315 60.69897562 -17.48568389 46.87465158 -25.6875 33.8125 C-31.47250865 28.02749135 -38.49182733 25.35533753 -46.5625 25.125 C-55.55775212 25.21773456 -61.68136905 27.70282141 -67.875 34.25 Z " fill="#0082FE" transform="translate(828,47.5)"/>
<path d="M0 0 C0.80661524 -0.00226556 1.61323048 -0.00453111 2.44428861 -0.00686532 C5.1442193 -0.01319016 7.84409959 -0.01237695 10.54403687 -0.0115509 C12.4807695 -0.01454323 14.41750154 -0.01794593 16.35423279 -0.02172852 C21.6122381 -0.03056256 26.87022714 -0.03290631 32.12823915 -0.0335443 C36.51481339 -0.03449366 40.90138382 -0.03817205 45.2879566 -0.0417164 C55.63194494 -0.04985776 65.97592459 -0.05230082 76.31991577 -0.05158997 C87.0019216 -0.0509884 97.68387705 -0.06155657 108.36587012 -0.07733363 C117.53112483 -0.0903897 126.69636303 -0.09577472 135.86162698 -0.09513456 C141.33846011 -0.09487911 146.81524841 -0.09775614 152.2920723 -0.10831261 C157.43844067 -0.11796175 162.58472106 -0.11809477 167.73109245 -0.11079597 C169.62298015 -0.10974634 171.51487323 -0.11213533 173.40675163 -0.11815643 C175.9826171 -0.12582563 178.5581748 -0.12126556 181.1340332 -0.11352539 C181.88840089 -0.11866895 182.64276859 -0.12381252 183.4199959 -0.12911195 C187.14724315 -0.10423836 188.75452107 0.01003818 191.94003296 2.13371277 C192.31723112 4.14837784 192.31723112 4.14837784 192.32034969 6.68182278 C192.32878963 7.64537196 192.33722957 8.60892114 192.34592527 9.60166878 C192.33991523 10.66769846 192.33390518 11.73372815 192.32771301 12.83206177 C192.33579132 14.52204067 192.33579132 14.52204067 192.34403282 16.24616057 C192.3584185 20.04724717 192.35118249 23.84799071 192.34408569 27.64909363 C192.34813778 30.3637076 192.35664436 33.07830366 192.36488342 35.79290771 C192.38211359 42.41646745 192.38290272 49.03993249 192.37767052 55.66350883 C192.37363531 61.04531088 192.37506463 66.42708487 192.38041878 71.80888557 C192.3811672 72.57374813 192.38191562 73.33861068 192.38268672 74.12665089 C192.38421814 75.68028263 192.38575649 77.23391437 192.38730169 78.78754611 C192.40104206 93.37009839 192.39557833 107.95259708 192.38411648 122.53514815 C192.37418303 135.88642475 192.38712393 149.23756279 192.41105067 162.58881801 C192.43541271 176.28579057 192.44505665 189.98269852 192.43839794 203.67969233 C192.43489919 211.374362 192.43718082 219.06892507 192.45464897 226.76357841 C192.46933489 233.31414653 192.47005404 239.864533 192.45257806 246.41509741 C192.44403531 249.75938687 192.44414482 253.1030832 192.45722961 256.44739914 C192.4703183 260.06803776 192.45899909 263.68778111 192.4412384 267.30838013 C192.45564591 268.90407858 192.45564591 268.90407858 192.47034448 270.53201336 C192.46053019 271.49817028 192.4507159 272.46432721 192.44060421 273.45976162 C192.44049687 274.2959608 192.44038954 275.13215999 192.44027895 275.99369854 C191.94003296 278.13371277 191.94003296 278.13371277 190.12872702 279.90189034 C186.888129 281.72573653 183.71961477 281.55409323 180.09884644 281.52812195 C179.30351926 281.53421305 178.50819209 281.54030416 177.6887641 281.54657984 C175.02042261 281.56324482 172.35255652 281.55842897 169.68417358 281.55363464 C167.77203881 281.56097333 165.85990847 281.56955898 163.94778442 281.57929993 C158.74899517 281.6015555 153.55036425 281.60444426 148.35153389 281.60255241 C144.00809619 281.6024328 139.66469214 281.61099395 135.32126379 281.61932993 C125.06655992 281.63858179 114.81193745 281.64144271 104.55722046 281.63468933 C93.99401499 281.62806019 83.43115976 281.65086344 72.8680253 281.68800306 C63.79095404 281.71875465 54.71399505 281.73005378 45.63687277 281.72616625 C40.21945251 281.7241029 34.80230424 281.72951272 29.38493347 281.75405884 C24.282713 281.77641102 19.18105818 281.77437776 14.07883453 281.75413132 C12.21330064 281.75073526 10.34772807 281.75574935 8.4822464 281.7701149 C-2.17279505 281.84645611 -10.52058557 281.38713726 -20.05996704 276.13371277 C-20.05996704 275.47371277 -20.05996704 274.81371277 -20.05996704 274.13371277 C-21.04996704 274.13371277 -22.03996704 274.13371277 -23.05996704 274.13371277 C-23.05996704 273.47371277 -23.05996704 272.81371277 -23.05996704 272.13371277 C-23.95135376 271.79146667 -23.95135376 271.79146667 -24.86074829 271.44230652 C-27.66360777 269.77453045 -28.63788076 268.01402319 -30.24746704 265.19621277 C-30.75664673 264.32093933 -31.26582642 263.44566589 -31.79043579 262.54386902 C-34.33772833 257.7079321 -34.2135573 253.29835691 -34.22059631 247.96342468 C-34.22568413 247.01307138 -34.23077195 246.06271808 -34.23601395 245.08356619 C-34.25176597 241.88478841 -34.26027084 238.68603326 -34.26870728 235.48722839 C-34.27824366 233.19924271 -34.28813473 230.91125849 -34.2983551 228.62327576 C-34.32977002 221.09552223 -34.35001267 213.56775756 -34.36856079 206.03996277 C-34.37185811 204.75939436 -34.37515543 203.47882595 -34.37855268 202.15945244 C-34.40933874 190.08225042 -34.43620868 178.00504789 -34.45297146 165.9278183 C-34.45692079 163.13056428 -34.4609238 160.33331036 -34.46499634 157.53605652 C-34.4660047 156.84083458 -34.46701306 156.14561264 -34.46805198 155.42932338 C-34.48504226 144.17861336 -34.52613271 132.92812395 -34.57701933 121.67752153 C-34.62886942 110.11846666 -34.65744158 98.55956009 -34.66516834 87.00038671 C-34.67012206 80.51372107 -34.68517709 74.02744725 -34.72491264 67.54089355 C-34.76182778 61.43407264 -34.7701721 55.32786656 -34.75690651 49.2209549 C-34.75696038 46.98409311 -34.76722418 44.74720374 -34.78865814 42.51044464 C-34.99820827 19.39998782 -34.99820827 19.39998782 -26.01898861 9.99623871 C-18.13667071 2.51497569 -10.77070119 -0.02224215 0 0 Z M-17.05996704 23.13371277 C-19.64265526 28.24111058 -20.49130676 32.36947674 -20.42073059 38.11270142 C-20.42329387 38.88639023 -20.42585714 39.66007905 -20.42849809 40.45721298 C-20.43341529 43.03375918 -20.41697761 45.60971135 -20.40054321 48.186203 C-20.39969649 50.03942857 -20.40017296 51.89265514 -20.40187073 53.74588013 C-20.40273035 58.76605523 -20.38510983 63.78601466 -20.36414886 68.80613971 C-20.34537663 74.05651931 -20.34363118 79.30690403 -20.34007263 84.55731201 C-20.33075379 94.49484692 -20.30614212 104.43228266 -20.27602416 114.36977392 C-20.24247521 125.68530554 -20.22599289 137.00084192 -20.21093786 148.3164109 C-20.17959247 171.58889981 -20.12683503 194.86130073 -20.05996704 218.13371277 C-19.5146936 217.94035339 -18.96942017 217.74699402 -18.40762329 217.54777527 C-15.96911633 216.7057609 -13.52009831 215.91023949 -11.05996704 215.13371277 C-10.07752061 214.8202185 -10.07752061 214.8202185 -9.07522678 214.50039101 C-1.09882887 212.34946182 7.2900234 212.82481317 15.48519897 212.81486511 C17.28851488 212.80544471 19.09182646 212.7951642 20.89513302 212.78409767 C25.70546807 212.75693504 30.51577273 212.74147762 35.32616425 212.72851562 C39.84719341 212.71453945 44.3681407 212.68991244 48.88912964 212.66618347 C62.09355077 212.60304033 75.2980488 212.5569064 88.50253296 212.50871277 C132.77409546 212.32308777 132.77409546 212.32308777 177.94003296 212.13371277 C177.94003296 147.12371277 177.94003296 82.11371277 177.94003296 15.13371277 C147.72440796 15.05121277 117.50878296 14.96871277 86.37753296 14.88371277 C72.06398437 14.82908875 72.06398437 14.82908875 57.46127319 14.77336121 C48.91117385 14.75998387 48.91117385 14.75998387 40.36106873 14.75193787 C36.55128166 14.74820966 32.7417173 14.73321363 28.93199158 14.71141052 C24.07122313 14.68396106 19.21077823 14.67575046 14.34993947 14.68142366 C12.56679446 14.68023748 10.78363806 14.672313 9.00055969 14.65685225 C6.58902101 14.63691491 4.17873441 14.64176561 1.76716614 14.6526947 C1.07182298 14.64104404 0.37647982 14.62939339 -0.33993435 14.61738968 C-7.18898694 14.70064979 -12.77499266 17.77749479 -17.05996704 23.13371277 Z M-17.05996704 236.13371277 C-19.75750815 240.9196728 -20.80012974 244.67501289 -20.05996704 250.13371277 C-17.89954684 255.87705207 -15.50790409 260.94467645 -10.05996704 264.13371277 C-5.45746057 265.98402846 -1.33302707 266.41558596 3.57098389 266.3742218 C4.31931697 266.37593065 5.06765004 266.3776395 5.83865988 266.37940013 C8.33527754 266.38268297 10.83162383 266.37171137 13.32821655 266.36076355 C15.12218215 266.36019917 16.9161482 266.36051651 18.71011353 266.36164856 C23.57328006 266.36222205 28.43634781 266.35046834 33.29949141 266.33650064 C38.38438891 266.32399265 43.46928871 266.32282273 48.55419922 266.32044983 C58.18008114 266.31423527 67.8059176 266.29782475 77.4317795 266.27775085 C88.39180048 266.25539112 99.35182364 266.24439823 110.31186175 266.23435998 C132.8546165 266.21345852 155.39730892 266.17678255 177.94003296 266.13371277 C177.94003296 253.59371277 177.94003296 241.05371277 177.94003296 228.13371277 C154.16614856 228.08858325 130.39229879 228.05173368 106.61838245 228.03008842 C95.57999451 228.01977148 84.54163505 228.00570314 73.50326538 227.98283386 C63.88334547 227.96291281 54.26344619 227.94999937 44.64350623 227.94553578 C39.54882389 227.94292623 34.45420057 227.93678391 29.35953712 227.92225266 C24.56534791 227.90868907 19.7712421 227.90448766 14.97703552 227.90749741 C13.21660598 227.9069467 11.45617369 227.90296198 9.69576073 227.89530182 C7.29330218 227.88535972 4.891159 227.88774118 2.48869324 227.89320374 C1.79121391 227.88737805 1.09373458 227.88155237 0.37511951 227.87555015 C-7.16946286 227.92195498 -12.02489584 230.71324106 -17.05996704 236.13371277 Z " fill="#2B5CFC" transform="translate(34.059967041015625,39.86628723144531)"/>
<path d="M0 0 C10.90653011 8.39335626 18.62310534 18.21682387 21 32 C22.65630032 49.49806991 19.416862 61.50194968 8.21484375 75.1796875 C6.83308293 76.80644138 5.42015559 78.4066547 4 80 C4.56847656 80.37769531 5.13695312 80.75539063 5.72265625 81.14453125 C16.01929227 88.48453723 21.73262276 98.59690664 24 111 C25.65895034 127.36648416 22.30342365 142.30712194 11.75 155.25 C-0.03123608 167.88382554 -17.18695535 174.1372016 -34.1628418 175.12597656 C-54.78726861 175.84524804 -73.79675858 172.88066776 -89.625 158.625 C-98.70992398 149.96684433 -102.96693419 140.19839488 -105 128 C-105 123.71 -105 119.42 -105 115 C-90.15 115 -75.3 115 -60 115 C-59.34 118.96 -58.68 122.92 -58 127 C-55.50079386 131.37361075 -52.67231054 133.20295748 -48 135 C-40.52370947 136.59330782 -34.4728663 135.73643315 -27.625 132.3125 C-23.87807855 129.01164062 -22.36199224 125.7953845 -21.71875 120.828125 C-21.49782344 115.48906639 -22.25274793 110.64190867 -25 106 C-34.38249103 96.85808566 -55.22958325 99.39234723 -67 99 C-67 86.79 -67 74.58 -67 62 C-54.125 61.6875 -54.125 61.6875 -50.12939453 61.61206055 C-37.7948571 61.34840775 -37.7948571 61.34840775 -27.4375 55.5 C-24.2408446 49.94059931 -24.42086928 44.25461177 -25 38 C-26.82825006 33.83158986 -28.24593019 32.45244189 -32.125 30.125 C-38.19345354 27.95491062 -44.53399212 28.03136327 -50.4375 30.625 C-54.14907134 32.76513993 -55.64783569 34.86396801 -57 39 C-57.33 41.64 -57.66 44.28 -58 47 C-72.85 47 -87.7 47 -103 47 C-103 30.72405175 -99.86512593 18.29299643 -88.51171875 6.3203125 C-66.3741738 -14.13023447 -24.87364047 -17.53259745 0 0 Z " fill="#0075FE" transform="translate(669,43)"/>
<path d="M0 0 C15.51 0 31.02 0 47 0 C47.04531994 15.89126279 47.08208926 31.78247355 47.10362434 47.67378235 C47.11389362 55.05402964 47.1278697 62.43423364 47.15087891 69.81445312 C47.17094711 76.25446829 47.18374794 82.69445207 47.18817699 89.13449764 C47.19076188 92.5377129 47.19674422 95.94083844 47.21146011 99.34402466 C47.39850736 148.01233236 47.39850736 148.01233236 29.75390625 166.33203125 C16.66870927 178.95662929 -0.10245326 183.64750897 -17.91650391 183.40454102 C-37.10011055 182.73126082 -53.41548209 177.4170773 -66.8125 163.125 C-77.11421175 150.69022794 -78.93321356 135.59463341 -79 120 C-78 119 -78 119 -76.13340759 118.87974548 C-75.31844315 118.88196609 -74.5034787 118.88418671 -73.66381836 118.88647461 C-72.7429393 118.88655014 -71.82206024 118.88662567 -70.87327576 118.88670349 C-69.87224319 118.89186478 -68.87121063 118.89702606 -67.83984375 118.90234375 C-66.31043907 118.90446617 -66.31043907 118.90446617 -64.75013733 118.90663147 C-61.47922893 118.91224903 -58.20838787 118.9248045 -54.9375 118.9375 C-52.72591244 118.94251274 -50.51432382 118.94707604 -48.30273438 118.95117188 C-42.86846643 118.96222416 -37.43423803 118.97897937 -32 119 C-31.85304688 120.62808594 -31.85304688 120.62808594 -31.703125 122.2890625 C-31.55295324 123.73446565 -31.40186268 125.17977353 -31.25 126.625 C-31.188125 127.33785156 -31.12625 128.05070313 -31.0625 128.78515625 C-30.51143249 133.79068611 -29.25711441 136.99265137 -26 141 C-20.85164291 143.81933841 -15.57719036 143.09301721 -10 142 C-6.05967513 140.62945222 -4.68123053 138.80637322 -2.90130615 135.18470764 C-0.34548331 129.20615497 -0.42680761 123.46474091 -0.45410156 117.04467773 C-0.43859505 115.14076012 -0.43859505 115.14076012 -0.42277527 113.19837952 C-0.39508582 109.74438901 -0.39150676 106.29075787 -0.39249516 102.83667254 C-0.38935124 99.21713018 -0.36370251 95.5977462 -0.34051514 91.97828674 C-0.3000642 85.1362236 -0.27964022 78.29425551 -0.26654124 71.45209128 C-0.25063406 63.65750824 -0.21220295 55.8630861 -0.17194796 48.06859672 C-0.08969832 32.04575445 -0.03848576 16.02301624 0 0 Z " fill="#008FFE" transform="translate(941,35)"/>
<path d="M0 0 C8.6862822 7.35921131 14.8479009 17.42056145 16.25 28.90625 C17.95562131 51.31548998 8.60664865 68.58642812 -5.44140625 85.109375 C-12.25285465 92.97193619 -19.30470284 100.53425509 -26.71484375 107.83984375 C-28.58645324 109.74019197 -30.33317791 111.68940094 -32.0625 113.71875 C-35.69947186 117.97332085 -39.66218895 121.87408136 -43.66333008 125.7824707 C-45.9872908 128.0674174 -47.93421775 130.18257662 -49.75 132.90625 C-14.605 133.40125 -14.605 133.40125 21.25 133.90625 C21.25 142.81625 21.25 151.72625 21.25 160.90625 C-17.03 160.90625 -55.31 160.90625 -94.75 160.90625 C-94.75 137.90625 -94.75 137.90625 -87.75 129.90625 C-84.25 126.40625 -84.25 126.40625 -82.49609375 124.68359375 C-80.68522357 122.84031426 -78.99678646 120.92802201 -77.3125 118.96875 C-74.89382221 116.16048653 -72.39100317 113.50654407 -69.75 110.90625 C-67.12959391 108.32615785 -64.64676588 105.69521393 -62.25 102.90625 C-59.85323412 100.11728607 -57.37040609 97.48634215 -54.75 94.90625 C-51.57747642 91.7761885 -48.61937464 88.53734725 -45.72265625 85.15234375 C-43.79757751 82.96042242 -41.80364745 80.84517987 -39.79638672 78.72875977 C-28.36803757 66.58785639 -18.25418719 53.39908983 -18.40234375 36.0859375 C-19.08786624 29.8161026 -21.82376879 24.88187175 -26.1875 20.40625 C-32.19785054 16.88799603 -37.88972422 16.08881141 -44.75 16.90625 C-51.4905782 18.71311446 -55.93240838 22.1123489 -59.75 27.90625 C-63.06620976 33.96690921 -63.00233361 37.42958612 -63.75 44.90625 C-74.97 44.90625 -86.19 44.90625 -97.75 44.90625 C-97.75 30.32935977 -95.08353724 20.10269284 -85.75 8.90625 C-85.12738281 8.13667969 -84.50476563 7.36710937 -83.86328125 6.57421875 C-64.01051035 -15.62306985 -23.31276482 -17.63401442 0 0 Z " fill="#0068FE" transform="translate(531.75,49.09375)"/>
<path d="M0 0 C0.91394531 0.350625 1.82789063 0.70125 2.76953125 1.0625 C13.01820751 5.59647659 22.67819268 14.42713378 27.21484375 24.76953125 C32.83572961 39.71188618 33.40075576 57.21138819 27 72 C26.30583984 73.65128906 26.30583984 73.65128906 25.59765625 75.3359375 C18.94141742 89.82017359 8.60840903 101.83614812 -2.34033203 113.25927734 C-4.177952 115.1866428 -5.99448034 117.13252946 -7.80859375 119.08203125 C-9.12229422 120.49228216 -10.43609501 121.90243964 -11.75 123.3125 C-12.35175049 123.95832031 -12.95350098 124.60414063 -13.57348633 125.26953125 C-17.95957439 129.95122306 -22.45738078 134.45738078 -27 139 C4.68 139.495 4.68 139.495 37 140 C37 152.87 37 165.74 37 179 C14.17332086 179.22576256 -8.65245406 179.40995849 -31.47996616 179.51812172 C-42.07925453 179.56967938 -52.67779989 179.63996468 -63.27661133 179.75439453 C-72.51493939 179.85408838 -81.75272939 179.91858682 -90.99158043 179.94088495 C-95.88353361 179.95391941 -100.77394758 179.9845313 -105.66540718 180.05730057 C-110.27137431 180.12526638 -114.87517122 180.14610042 -119.48159218 180.13107681 C-121.1703446 180.13382428 -122.85917077 180.15367128 -124.54748917 180.19205475 C-137.28760803 180.46744992 -137.28760803 180.46744992 -141.48547173 176.87005234 C-143.30358088 174.31583714 -144.65848192 171.82799677 -146 169 C-147.04128404 167.35054044 -148.10009525 165.71188576 -149.18359375 164.08984375 C-150.27041365 162.37377737 -151.3549664 160.6562735 -152.4375 158.9375 C-153.65201313 157.01932187 -154.86687147 155.10136229 -156.08203125 153.18359375 C-156.71447754 152.18440918 -157.34692383 151.18522461 -157.99853516 150.15576172 C-161.52576132 144.5942924 -165.07525702 139.04710954 -168.625 133.5 C-169.63711548 131.91626587 -169.63711548 131.91626587 -170.66967773 130.30053711 C-173.73822768 125.50478869 -176.81572712 120.71983594 -180 116 C-183.78734321 119.11288483 -187.09542033 122.02531203 -190 126 C-190.66 126 -191.32 126 -192 126 C-192 143.49 -192 160.98 -192 179 C-207.18 179 -222.36 179 -238 179 C-238 119.27 -238 59.54 -238 -2 C-222.82 -2 -207.64 -2 -192 -2 C-191.67 18.79 -191.34 39.58 -191 61 C-187.04 55.72 -183.08 50.44 -179 45 C-176.69741884 42.01164493 -174.39113433 39.03004679 -172.0625 36.0625 C-167.40959639 30.1044423 -162.77971042 24.12998844 -158.1875 18.125 C-157.69709229 17.4844165 -157.20668457 16.84383301 -156.70141602 16.18383789 C-156.21600342 15.54824951 -155.73059082 14.91266113 -155.23046875 14.2578125 C-154.6991333 13.60876953 -154.16779785 12.95972656 -153.62036133 12.29101562 C-151.8542675 9.96361373 -151.8542675 9.96361373 -150.65112305 6.84960938 C-148.65931668 2.94828128 -146.89716739 0.05502027 -143 -2 C-134.03371662 -3.95066123 -124.60710825 -3.1861472 -115.49542236 -2.82397461 C-112.05707353 -2.70037883 -108.61767228 -2.64623852 -105.17773438 -2.5859375 C-98.44907096 -2.45404907 -91.72511725 -2.2536026 -85 -2 C-86.77551043 0.99458475 -88.53068791 3.81195734 -90.75 6.49609375 C-91.27013672 7.12966797 -91.79027344 7.76324219 -92.32617188 8.41601562 C-92.87853516 9.08310547 -93.43089844 9.75019531 -94 10.4375 C-95.17802252 11.87292766 -96.35509045 13.30913921 -97.53125 14.74609375 C-98.41103516 15.82093018 -98.41103516 15.82093018 -99.30859375 16.91748047 C-101.74367745 19.91564213 -104.12537308 22.95388135 -106.5 26 C-110.44151093 31.0487985 -114.45031778 36.03757943 -118.5 41 C-123.01928901 46.53906688 -127.47927322 52.11847965 -131.88208008 57.75048828 C-137.19777833 64.54575348 -142.60022844 71.27148884 -148 78 C-146.42142739 82.55256852 -143.95329156 86.38377679 -141.3125 90.375 C-140.83627197 91.10251465 -140.36004395 91.8300293 -139.86938477 92.57958984 C-138.81920344 94.18370378 -137.76727745 95.7866765 -136.71386719 97.38867188 C-134.89806762 100.15530894 -133.09252153 102.9284291 -131.2890625 105.703125 C-124.78059715 115.71397799 -118.23810911 125.69948449 -111.59228516 135.61962891 C-108.26598371 140.59225066 -104.95053411 145.57212721 -101.63272095 150.55041504 C-99.61742138 153.57417123 -97.60166608 156.59762355 -95.5859375 159.62109375 C-93.79296875 162.31054688 -93.79296875 162.31054688 -92 165 C-92.07863281 163.85144531 -92.15726563 162.70289063 -92.23828125 161.51953125 C-92.63168769 148.41824785 -92.63168769 148.41824785 -88.28515625 143.19140625 C-85.54902137 140.37110751 -82.58608943 137.82798891 -79.55615234 135.32958984 C-77.54985249 133.61539013 -75.87063954 131.71589893 -74.1875 129.6875 C-71.28539188 126.26946155 -68.16245955 123.14457556 -64.96875 120 C-63.06013545 118.06108998 -61.27289448 116.06300449 -59.5 114 C-57.10323412 111.21103607 -54.62040609 108.58009215 -52 106 C-48.84784855 102.88995745 -45.913171 99.67174083 -43.03515625 96.30859375 C-41.46900205 94.53201576 -39.88107159 92.80909188 -38.24609375 91.09765625 C-21.57445596 73.93324015 -21.57445596 73.93324015 -14.5 51.9375 C-14.70548605 46.56746449 -15.59219375 42.24910841 -19 38 C-23.83828656 34.31368643 -29.1473232 34.30416058 -35 35 C-39.7467417 36.67014986 -42.28265442 38.78342927 -45 43 C-48.14565985 49.75734338 -48.27690883 54.04599714 -49 62 C-63.85 62 -78.7 62 -94 62 C-94 42.88186276 -90.73962033 28.35068707 -77.40234375 14.34765625 C-57.43898949 -5.16124767 -26.02779935 -10.13117926 0 0 Z M-75.625 20.1796875 C-85.23304681 31.58924308 -88 42.12054432 -88 57 C-76.78 57 -65.56 57 -54 57 C-53.34 52.71 -52.68 48.42 -52 44 C-48.69830998 37.39661996 -45.02612836 32.92156126 -38.25 29.6875 C-30.09297594 27.96197568 -23.16340225 28.50819449 -16 33 C-10.79348921 38.06949735 -8.82908876 43.64403068 -8.5625 50.75 C-9.14725132 70.31480462 -24.89605183 86.31163786 -38.20703125 99.2109375 C-40.06932138 101.06917036 -41.78592379 103.00473825 -43.5 105 C-46.51762353 108.51141648 -49.73359081 111.75307402 -53.03125 115 C-54.93986455 116.93891002 -56.72710552 118.93699551 -58.5 121 C-61.51641923 124.51001511 -64.73095132 127.75051276 -68.02734375 130.99609375 C-70.56572416 133.57468612 -72.90650166 136.29792263 -75.26171875 139.04296875 C-77.59595705 141.67095389 -80.08764296 144.11588895 -82.6171875 146.5546875 C-89.31518293 153.55541719 -85 162.61696613 -85 173 C-46.72 173 -8.44 173 31 173 C31 164.09 31 155.18 31 146 C-4.145 145.505 -4.145 145.505 -40 145 C-29.99503722 133.88337469 -29.99503722 133.88337469 -25.375 129.375 C-21.69275274 125.73355326 -18.22182848 122.02253058 -14.8671875 118.08203125 C-12.55631213 115.50526018 -10.0978889 113.10901309 -7.625 110.6875 C-2.31155288 105.45111192 2.43052746 99.89310204 7 94 C7.67804688 93.15050781 8.35609375 92.30101562 9.0546875 91.42578125 C20.49974715 76.52939038 27.7529728 60.0463449 26 41 C23.45648361 28.13871657 17.68109301 17.7304195 7 10 C-1.86068786 4.57335863 -11.63738517 1.50549341 -22 1 C-23.25941406 0.93554688 -24.51882813 0.87109375 -25.81640625 0.8046875 C-45.11515577 0.13606239 -62.19208725 5.84864396 -75.625 20.1796875 Z M-233 3 C-233 59.1 -233 115.2 -233 173 C-221.45 173 -209.9 173 -198 173 C-198.04382813 169.57882813 -198.08765625 166.15765625 -198.1328125 162.6328125 C-198.14121067 159.29314019 -198.13245072 155.95391843 -198.12207031 152.61425781 C-198.12400848 150.30590499 -198.1435888 147.99749311 -198.18164062 145.68945312 C-198.49660886 125.42649669 -198.49660886 125.42649669 -194.84326172 120.36083984 C-192.35701423 117.88739157 -189.88052054 115.98283917 -187 114 C-185.58067933 112.49903699 -184.20104963 110.95896764 -182.875 109.375 C-182.31554687 108.72273438 -181.75609375 108.07046875 -181.1796875 107.3984375 C-180.59574219 106.70621094 -180.59574219 106.70621094 -180 106 C-174.96965151 113.05564165 -170.20740985 120.24844358 -165.5625 127.5625 C-164.88018311 128.63226074 -164.19786621 129.70202148 -163.49487305 130.80419922 C-161.69511491 133.62595332 -159.89700148 136.44873961 -158.09985352 139.27215576 C-155.53932008 143.29469412 -152.97751966 147.31641901 -150.41186523 151.33569336 C-149.04500956 153.47729663 -147.67984941 155.61998331 -146.31665039 157.76391602 C-145.69266357 158.74158936 -145.06867676 159.7192627 -144.42578125 160.7265625 C-143.88348877 161.57814941 -143.34119629 162.42973633 -142.7824707 163.30712891 C-142.19425537 164.19577637 -141.60604004 165.08442383 -141 166 C-140.67227097 166.61410233 -140.34454193 167.22820465 -140.00688171 167.86091614 C-138.35965003 170.66860186 -137.18736002 172.64521539 -133.97489929 173.60510254 C-131.46816795 173.81116206 -129.05598918 173.78783138 -126.54296875 173.68359375 C-125.64000565 173.67368912 -124.73704254 173.66378448 -123.80671692 173.65357971 C-120.93196895 173.61449532 -118.0610868 173.52669106 -115.1875 173.4375 C-113.23508132 173.40237815 -111.28260259 173.37044067 -109.33007812 173.34179688 C-104.55190341 173.26475335 -99.77660627 173.14401669 -95 173 C-96.36710009 169.24289719 -98.08525315 166.14319142 -100.32421875 162.8359375 C-101.01136963 161.8142749 -101.69852051 160.7926123 -102.40649414 159.73999023 C-102.77646515 159.19430389 -103.14643616 158.64861755 -103.52761841 158.08639526 C-105.56246901 155.08399079 -107.58080662 152.07049434 -109.6015625 149.05859375 C-110.03402786 148.41485306 -110.46649323 147.77111237 -110.9120636 147.10786438 C-117.17423971 137.77679592 -123.33402756 128.37767043 -129.48291016 118.97167969 C-130.44680071 117.49795569 -131.4108297 116.02432223 -132.375 114.55078125 C-132.84650482 113.83010468 -133.31800964 113.1094281 -133.80380249 112.36691284 C-136.51108421 108.23898701 -139.25011255 104.13519369 -142.02845764 100.05476379 C-143.66822656 97.64525771 -145.29550888 95.2274548 -146.92184448 92.80886841 C-148.03532889 91.16511077 -149.16796563 89.53437856 -150.30102539 87.90405273 C-150.95578857 86.92766846 -151.61055176 85.95128418 -152.28515625 84.9453125 C-152.86144775 84.10500488 -153.43773926 83.26469727 -154.03149414 82.39892578 C-155 80 -155 80 -154.31030273 77.37060547 C-152.5796068 74.23942278 -150.36355626 71.65930506 -148 69 C-143.78847203 64.14686668 -139.79396992 59.205907 -135.90991211 54.08569336 C-132.01538876 48.97389372 -127.96241031 43.99892703 -123.89599609 39.0234375 C-119.83585752 34.04842234 -115.84993362 29.02079648 -111.90063477 23.95751953 C-108.31116124 19.36548491 -104.6193745 14.86943759 -100.875 10.40234375 C-99.02263065 8.02899552 -97.52501418 5.59150096 -96 3 C-101.88502921 2.60057232 -107.76200305 2.31255166 -113.6574707 2.12109375 C-115.6556138 2.04123886 -117.65283977 1.93248593 -119.64770508 1.79296875 C-130.88277319 0.76742566 -130.88277319 0.76742566 -141.14306641 4.4911499 C-144.97471995 8.16258778 -147.8757398 12.35829927 -150.64694214 16.86125183 C-152.91621267 20.44823678 -155.54161756 23.76152457 -158.125 27.125 C-159.11684055 28.45535137 -160.10670721 29.78717885 -161.09375 31.12109375 C-163.87820658 34.8575888 -166.73635631 38.53120192 -169.625 42.1875 C-170.07834717 42.76218018 -170.53169434 43.33686035 -170.9987793 43.92895508 C-171.89669614 45.06698429 -172.79472508 46.20492508 -173.69287109 47.34277344 C-181.82881596 57.65782643 -189.41016335 68.24773142 -197 79 C-197.33 53.92 -197.66 28.84 -198 3 C-209.55 3 -221.1 3 -233 3 Z " fill="#0049AE" transform="translate(522,37)"/>
<path d="M0 0 C10.90653011 8.39335626 18.62310534 18.21682387 21 32 C22.65630032 49.49806991 19.416862 61.50194968 8.21484375 75.1796875 C6.83308293 76.80644138 5.42015559 78.4066547 4 80 C4.56847656 80.37769531 5.13695312 80.75539063 5.72265625 81.14453125 C16.01929227 88.48453723 21.73262276 98.59690664 24 111 C25.65895034 127.36648416 22.30342365 142.30712194 11.75 155.25 C-0.03123608 167.88382554 -17.18695535 174.1372016 -34.1628418 175.12597656 C-54.78726861 175.84524804 -73.79675858 172.88066776 -89.625 158.625 C-98.70992398 149.96684433 -102.96693419 140.19839488 -105 128 C-105 123.71 -105 119.42 -105 115 C-90.15 115 -75.3 115 -60 115 C-59.34 118.96 -58.68 122.92 -58 127 C-55.50079386 131.37361075 -52.67231054 133.20295748 -48 135 C-40.52370947 136.59330782 -34.4728663 135.73643315 -27.625 132.3125 C-23.87807855 129.01164062 -22.36199224 125.7953845 -21.71875 120.828125 C-21.49782344 115.48906639 -22.25274793 110.64190867 -25 106 C-34.38249103 96.85808566 -55.22958325 99.39234723 -67 99 C-67 86.79 -67 74.58 -67 62 C-54.125 61.6875 -54.125 61.6875 -50.12939453 61.61206055 C-37.7948571 61.34840775 -37.7948571 61.34840775 -27.4375 55.5 C-24.2408446 49.94059931 -24.42086928 44.25461177 -25 38 C-26.82825006 33.83158986 -28.24593019 32.45244189 -32.125 30.125 C-38.19345354 27.95491062 -44.53399212 28.03136327 -50.4375 30.625 C-54.14907134 32.76513993 -55.64783569 34.86396801 -57 39 C-57.33 41.64 -57.66 44.28 -58 47 C-72.85 47 -87.7 47 -103 47 C-103 30.72405175 -99.86512593 18.29299643 -88.51171875 6.3203125 C-66.3741738 -14.13023447 -24.87364047 -17.53259745 0 0 Z M-88 14 C-94.43233775 22.79495862 -97 29.96823964 -97 41 C-85.78 41 -74.56 41 -63 41 C-62.34 38.36 -61.68 35.72 -61 33 C-57.3264391 27.03046354 -52.73499324 24.71732733 -46 23 C-37.95233859 21.77336215 -31.71085311 23.42612246 -25 28 C-20.60845395 32.50133471 -18.71213482 36.40562008 -18.6875 42.6875 C-18.82610103 49.0092468 -19.28870383 54.88703032 -23.58203125 59.81640625 C-28.74296249 64.4826077 -33.41000777 66.21545046 -40.39453125 66.4140625 C-41.47839111 66.44967285 -42.56225098 66.4852832 -43.67895508 66.52197266 C-45.0430249 66.55597168 -46.40709473 66.5899707 -47.8125 66.625 C-52.164375 66.74875 -56.51625 66.8725 -61 67 C-61 75.91 -61 84.82 -61 94 C-52.56502562 94.16984473 -52.56502562 94.16984473 -44.12939453 94.29785156 C-35.3493956 94.5487464 -27.71679268 95.5995301 -21.0625 101.6875 C-16.76418355 108.59085673 -14.68014108 115.85671949 -16 124 C-18.52111103 131.39094942 -22.12678136 136.53709633 -29.171875 140.09765625 C-36.01180703 142.28001026 -45.05521552 142.2222537 -51.9375 140.08984375 C-60.39950488 135.6444324 -62.96737477 130.09787568 -66 121 C-76.89 121 -87.78 121 -99 121 C-99 133.86518079 -96.07238572 143.68002481 -87 153 C-74.28051177 164.98023592 -59.09974591 169.59591163 -41.875 169.5 C-40.10092773 169.49250732 -40.10092773 169.49250732 -38.29101562 169.48486328 C-21.96721111 169.16203845 -6.87768758 164.67895733 5.3125 153.375 C16.06182509 142.02754077 18.73941315 128.77268191 18.3671875 113.70703125 C17.80222206 103.66787587 13.3423341 96.34484392 6.484375 89.19921875 C2.09929556 85.31745818 -2.78925445 82.60537278 -8 80 C-7.21496094 79.45472656 -6.42992187 78.90945312 -5.62109375 78.34765625 C4.85525481 70.82782324 12.51550112 62.85392921 16 50 C17.63162045 36.10791735 14.05079472 23.00358835 5.40625 11.96484375 C-3.64509383 2.25172714 -18.25601765 -4.11891181 -31.515625 -4.94140625 C-32.33546875 -4.96074219 -33.1553125 -4.98007812 -34 -5 C-35.19109375 -5.05027344 -36.3821875 -5.10054687 -37.609375 -5.15234375 C-56.71582033 -5.73464429 -74.90574957 -0.7581607 -88 14 Z " fill="#004AAF" transform="translate(669,43)"/>
<path d="M0 0 C18 0 18 0 21.99609375 3.55859375 C23.29125977 5.89404297 23.29125977 5.89404297 24.4375 8.4375 C25.37014131 10.17959427 26.30509089 11.92045449 27.2421875 13.66015625 C27.69174805 14.54848145 28.14130859 15.43680664 28.60449219 16.35205078 C30.81306965 20.54278402 33.43494882 24.43869014 36.0625 28.375 C36.95167821 29.73537476 37.83855609 31.09725708 38.72265625 32.4609375 C39.09140869 33.02603027 39.46016113 33.59112305 39.84008789 34.17333984 C41.26852921 36.42288687 42.6289961 38.7149935 44 41 C44.33 27.47 44.66 13.94 45 0 C50.61 0 56.22 0 62 0 C63 1 63 1 63.12025452 3.85365295 C63.11803391 5.13050461 63.11581329 6.40735626 63.11352539 7.72290039 C63.11367142 8.4253035 63.11381744 9.1277066 63.1139679 9.85139465 C63.11326872 12.18351278 63.10547617 14.515552 63.09765625 16.84765625 C63.09579208 18.46048438 63.09436818 20.07331307 63.09336853 21.68614197 C63.08954323 25.93915357 63.07971285 30.19213124 63.06866455 34.44512939 C63.05845069 38.7817743 63.05387096 43.11842467 63.04882812 47.45507812 C63.03809059 55.97006769 63.02101403 64.48502963 63 73 C47.12201345 74.32080696 47.12201345 74.32080696 42.50537109 71.44726562 C40.70848733 69.13934152 39.44789549 66.88888471 38.1875 64.25 C37.16870862 62.42594134 36.14780703 60.60305999 35.125 58.78125 C34.62226563 57.83378906 34.11953125 56.88632812 33.6015625 55.91015625 C30.90581031 51.01177726 27.77678273 46.40572346 24.6875 41.75 C22.810625 38.8625 20.93375 35.975 19 33 C18.67 46.2 18.34 59.4 18 73 C12.06 73 6.12 73 0 73 C0 48.91 0 24.82 0 0 Z " fill="#FFFFFF" transform="translate(363,247)"/>
<path d="M0 0 C15.51 0 31.02 0 47 0 C47.04531994 15.89126279 47.08208926 31.78247355 47.10362434 47.67378235 C47.11389362 55.05402964 47.1278697 62.43423364 47.15087891 69.81445312 C47.17094711 76.25446829 47.18374794 82.69445207 47.18817699 89.13449764 C47.19076188 92.5377129 47.19674422 95.94083844 47.21146011 99.34402466 C47.39850736 148.01233236 47.39850736 148.01233236 29.75390625 166.33203125 C16.66870927 178.95662929 -0.10245326 183.64750897 -17.91650391 183.40454102 C-37.10011055 182.73126082 -53.41548209 177.4170773 -66.8125 163.125 C-77.11421175 150.69022794 -78.93321356 135.59463341 -79 120 C-78 119 -78 119 -76.13340759 118.87974548 C-75.31844315 118.88196609 -74.5034787 118.88418671 -73.66381836 118.88647461 C-72.7429393 118.88655014 -71.82206024 118.88662567 -70.87327576 118.88670349 C-69.87224319 118.89186478 -68.87121063 118.89702606 -67.83984375 118.90234375 C-66.31043907 118.90446617 -66.31043907 118.90446617 -64.75013733 118.90663147 C-61.47922893 118.91224903 -58.20838787 118.9248045 -54.9375 118.9375 C-52.72591244 118.94251274 -50.51432382 118.94707604 -48.30273438 118.95117188 C-42.86846643 118.96222416 -37.43423803 118.97897937 -32 119 C-31.85304688 120.62808594 -31.85304688 120.62808594 -31.703125 122.2890625 C-31.55295324 123.73446565 -31.40186268 125.17977353 -31.25 126.625 C-31.188125 127.33785156 -31.12625 128.05070313 -31.0625 128.78515625 C-30.51143249 133.79068611 -29.25711441 136.99265137 -26 141 C-20.85164291 143.81933841 -15.57719036 143.09301721 -10 142 C-6.05967513 140.62945222 -4.68123053 138.80637322 -2.90130615 135.18470764 C-0.34548331 129.20615497 -0.42680761 123.46474091 -0.45410156 117.04467773 C-0.43859505 115.14076012 -0.43859505 115.14076012 -0.42277527 113.19837952 C-0.39508582 109.74438901 -0.39150676 106.29075787 -0.39249516 102.83667254 C-0.38935124 99.21713018 -0.36370251 95.5977462 -0.34051514 91.97828674 C-0.3000642 85.1362236 -0.27964022 78.29425551 -0.26654124 71.45209128 C-0.25063406 63.65750824 -0.21220295 55.8630861 -0.17194796 48.06859672 C-0.08969832 32.04575445 -0.03848576 16.02301624 0 0 Z M6 5 C5.98541748 8.70395996 5.97083496 12.40791992 5.95581055 16.22412109 C5.90541789 28.47771811 5.8389632 40.73118419 5.76428509 52.98465538 C5.71940921 60.41211906 5.67997587 67.83953566 5.65356445 75.26708984 C5.63051761 81.74449247 5.59704563 88.2217451 5.55129844 94.69902861 C5.5274558 98.12550967 5.50866863 101.55184301 5.50238609 104.978405 C5.49272842 108.81313739 5.46464723 112.64733387 5.43237305 116.48193359 C5.43452568 118.16724182 5.43452568 118.16724182 5.4367218 119.88659668 C5.34273373 127.81081025 4.65549173 135.93112005 -0.3125 142.4375 C-5.32469311 147.21656784 -9.63991246 148.4168298 -16.5 148.375 C-17.7684375 148.38273438 -19.036875 148.39046875 -20.34375 148.3984375 C-25.32514092 147.85559362 -28.64858907 146.35141093 -32.1875 142.8125 C-35.93711782 136.99412751 -37.01340896 131.90613725 -38 125 C-49.55 125 -61.1 125 -73 125 C-71.94591434 139.7571993 -70.36111076 151.14443276 -60 162 C-59.47792969 162.55042969 -58.95585938 163.10085937 -58.41796875 163.66796875 C-46.63482962 174.82038024 -31.48451117 177.17558884 -16 177.1875 C-15.16210938 177.19974609 -14.32421875 177.21199219 -13.4609375 177.22460938 C1.08713066 177.25838972 15.26983255 171.91273604 26.0859375 162.109375 C38.70988134 149.05012275 41.34012542 133.80995878 41.22705078 116.25488281 C41.22734283 115.04368774 41.22763489 113.83249268 41.22793579 112.58459473 C41.22679171 109.30434771 41.21685039 106.02427755 41.20278788 102.74406528 C41.19017619 99.30080007 41.18910188 95.85753036 41.18673706 92.41424561 C41.18055266 85.91224092 41.16418358 79.41030452 41.14403808 72.90832973 C41.12158371 65.49828673 41.11066181 58.08824025 41.10064721 50.67817163 C41.07981418 35.45207028 41.04317659 20.22605747 41 5 C29.45 5 17.9 5 6 5 Z " fill="#004AAE" transform="translate(941,35)"/>
<path d="M0 0 C5.61 0 11.22 0 17 0 C20.30796974 3.30796974 21.97473182 5.18608051 24.00292969 9.12060547 C25.55240759 12.04124231 27.32344297 14.81895351 29.06884766 17.62548828 C30.43336779 19.82985635 31.76478848 22.0514206 33.09375 24.27734375 C36.58158466 29.94507508 40.30850587 35.4627588 44 41 C44.33 27.47 44.66 13.94 45 0 C50.61 0 56.22 0 62 0 C62 24.09 62 48.18 62 73 C44 73 44 73 40.36328125 69.87109375 C39.2668457 67.76513672 39.2668457 67.76513672 38.3125 65.4375 C37.48599174 63.79992282 36.65224563 62.16598493 35.8125 60.53515625 C35.379375 59.65102051 34.94625 58.76688477 34.5 57.85595703 C31.66283865 52.45408309 28.19115014 47.44842699 24.8125 42.375 C22.564375 38.95125 20.31625 35.5275 18 32 C17.67 45.53 17.34 59.06 17 73 C11.39 73 5.78 73 0 73 C0 48.91 0 24.82 0 0 Z " fill="#FFFFFF" transform="translate(526,247)"/>
<path d="M0 0 C8.95712609 9.4049824 11.22920508 19.92400842 11.0234375 32.3828125 C10.61057763 43.39750614 5.88230407 50.79195176 -2 58.1875 C-10.38660258 65.22453434 -19.49313318 67.04495282 -30.1875 66.4375 C-39.33205289 65.36527437 -47.21702148 61.29356473 -53.55078125 54.60546875 C-62.04563124 43.35334048 -63.26691022 32.01983348 -62.1875 18.4375 C-61.38398564 14.68164429 -60.17722649 11.71032114 -58.1875 8.4375 C-57.76339844 7.73625 -57.33929688 7.035 -56.90234375 6.3125 C-50.64620375 -2.88873098 -42.22646071 -7.98480191 -31.5625 -10.375 C-19.36215407 -11.50599854 -8.95988884 -8.11620815 0 0 Z M-38.76953125 13.15625 C-43.89636526 20.12992623 -43.85428998 26.95705848 -43.1875 35.4375 C-41.90259153 40.24672886 -40.01127234 42.78184447 -36.125 45.875 C-30.12416689 49.06693251 -24.89514971 49.26356262 -18.5 47.3125 C-13.83516526 44.67202751 -11.26088457 41.58426915 -8.875 36.8125 C-7.35521428 29.35173372 -6.95811867 21.85852141 -10.9140625 15.125 C-13.41938017 11.80506983 -16.23469549 9.25641802 -20.125 7.625 C-21.1459375 7.5321875 -21.1459375 7.5321875 -22.1875 7.4375 C-23.26 7.334375 -24.3325 7.23125 -25.4375 7.125 C-30.79722094 7.57164341 -35.0658561 9.13250416 -38.76953125 13.15625 Z " fill="#FFFFFF" transform="translate(341.1875,255.5625)"/>
<path d="M0 0 C1.1443384 1.11572994 2.22382137 2.29767464 3.28125 3.49609375 C1.76571596 6.97384554 -0.2960956 9.45189215 -2.84375 12.24609375 C-3.56820312 13.0453125 -4.29265625 13.84453125 -5.0390625 14.66796875 C-5.87050781 15.57289063 -5.87050781 15.57289063 -6.71875 16.49609375 C-9.18311289 15.32903817 -11.02467848 14.24507551 -13.15625 12.49609375 C-17.20425023 9.33667894 -20.04648691 8.270172 -25.15625 8.62109375 C-29.53675095 9.26143276 -32.34774764 10.51706841 -35.71875 13.49609375 C-40.69671989 20.35675738 -41.5328543 27.21745566 -40.71875 35.49609375 C-39.01504023 41.27897149 -35.86334928 45.29285269 -30.71875 48.49609375 C-25.86729254 50.02623803 -21.9729936 49.95302277 -17.34375 47.80859375 C-13.17737118 45.40650655 -11.2453474 43.07588594 -9.71875 38.49609375 C-14.99875 38.49609375 -20.27875 38.49609375 -25.71875 38.49609375 C-25.71875 33.54609375 -25.71875 28.59609375 -25.71875 23.49609375 C-14.49875 23.49609375 -3.27875 23.49609375 8.28125 23.49609375 C9.03300394 47.25151818 9.03300394 47.25151818 3.28125 54.49609375 C2.78496094 55.14449219 2.28867187 55.79289062 1.77734375 56.4609375 C-3.37940745 62.33839128 -10.37905062 65.36777191 -17.84375 67.30859375 C-18.7925 67.37046875 -19.74125 67.43234375 -20.71875 67.49609375 C-21.38132812 67.54636719 -22.04390625 67.59664063 -22.7265625 67.6484375 C-33.52201428 68.11862268 -42.50738123 64.12867589 -50.4375 56.9375 C-59.0083917 47.81999531 -61.20542997 36.66468068 -61.00390625 24.625 C-60.51957614 14.01598021 -55.13527723 5.30951925 -47.625 -1.8984375 C-33.96534181 -13.40278077 -12.96725078 -11.34634443 0 0 Z " fill="#FFFFFF" transform="translate(928.71875,254.50390625)"/>
<path d="M0 0 C37.86982249 0 37.86982249 0 49 11 C57.58733252 21.2784921 59.10963927 31.99399557 58 45 C56.19100824 54.64795607 50.52341484 61.72962846 42.84765625 67.6640625 C29.38234295 76.50309734 17.65613415 73 0 73 C0 48.91 0 24.82 0 0 Z M18 16 C18 29.53 18 43.06 18 57 C27.68256772 56.14788018 27.68256772 56.14788018 34.44140625 50.28515625 C39.22152475 43.84357206 39.89702825 37.9523066 39 30 C37.01199781 24.87738855 33.67681479 20.89517106 29 18 C25.06340879 16.61873993 22.18478539 16 18 16 Z " fill="#FFFFFF" transform="translate(802,247)"/>
<path d="M0 0 C1.35219312 1.14475441 2.68654148 2.31100227 4 3.5 C4.99 4.35271484 4.99 4.35271484 6 5.22265625 C22.22446548 20.14789695 30.1527914 43.3787215 31.16113281 64.9465332 C31.52359905 96.05751626 29.97417415 125.35020863 7.33984375 149.22265625 C-0.00988297 156.37606306 -7.63182678 161.33781719 -17 165.5 C-17.69867187 165.81839844 -18.39734375 166.13679687 -19.1171875 166.46484375 C-36.90196171 173.88131598 -59.5942278 172.07555887 -77.1875 165.25 C-91.6864439 158.73987817 -104.18657217 148.52651503 -112 134.5 C-112.76570312 133.13101563 -112.76570312 133.13101563 -113.546875 131.734375 C-127.8667174 104.654277 -128.82793938 68.40092519 -120.3203125 39.19140625 C-112.60983265 17.63399958 -99.56558977 1.19474682 -78.8828125 -9.04296875 C-53.61862298 -20.23139554 -22.00283804 -16.51159619 0 0 Z M-100 13.5 C-115.12869588 31.19337004 -119.22370465 53.74861803 -119.125 76.3125 C-119.12016602 77.46524414 -119.11533203 78.61798828 -119.11035156 79.80566406 C-118.93172447 105.03495499 -113.50120546 127.38655832 -95.6875 146.25 C-79.92626848 161.36350968 -61.15941577 165.26385311 -40.07421875 164.875 C-21.25990689 164.05251642 -5.74106288 155.08904153 6.9296875 141.41796875 C21.76406303 123.64968339 25.37939361 101.29508609 25.31567383 78.88696289 C25.31250757 76.56804558 25.33610556 74.25040228 25.36132812 71.93164062 C25.4594078 48.92974602 19.15026633 27.00693083 2.7890625 10.2265625 C-12.05191133 -4.28184049 -29.75865439 -9.8125 -50.21826172 -9.8125 C-69.87736366 -9.441016 -86.74379973 -0.7388838 -100 13.5 Z " fill="#004AAF" transform="translate(828,47.5)"/>
<path d="M0 0 C5.94 0 11.88 0 18 0 C18.01981934 1.42787842 18.03963867 2.85575684 18.06005859 4.3269043 C18.13618343 9.62916572 18.22489066 14.9311552 18.31738281 20.2331543 C18.35564405 22.52704496 18.39050189 24.82099503 18.421875 27.11499023 C18.46758706 30.4141156 18.52557222 33.71283296 18.5859375 37.01171875 C18.59748871 38.03585373 18.60903992 39.05998871 18.62094116 40.11515808 C18.64081085 41.07577652 18.66068054 42.03639496 18.68115234 43.02612305 C18.69447601 43.86773483 18.70779968 44.70934662 18.7215271 45.57646179 C19.17443885 49.51813418 20.13323246 52.23520511 23.125 54.875 C27.01265021 56.39625443 30.0307614 56.23727312 34 55 C36.93087207 52.74548302 37.82814288 51.51557135 39 48 C39.11448477 46.42038841 39.17622932 44.83666148 39.20532227 43.25317383 C39.22526749 42.29240433 39.24521271 41.33163483 39.26576233 40.3417511 C39.28247482 39.30729355 39.29918732 38.272836 39.31640625 37.20703125 C39.33718735 36.14586594 39.35796844 35.08470062 39.37937927 33.99137878 C39.44481238 30.59848563 39.50373093 27.2055145 39.5625 23.8125 C39.60569114 21.51366378 39.64930562 19.21483547 39.69335938 16.91601562 C39.8004874 11.2774264 39.90226551 5.63875944 40 0 C42.81256281 -0.02684312 45.62487241 -0.04676188 48.4375 -0.0625 C49.64116211 -0.07506836 49.64116211 -0.07506836 50.86914062 -0.08789062 C52.91295221 -0.0965143 54.95683902 -0.0522815 57 0 C58.63217979 1.63217979 58.14387889 3.47578205 58.16113281 5.72827148 C58.17074036 6.73699814 58.1803479 7.74572479 58.19024658 8.78501892 C58.19449646 9.88592361 58.19874634 10.98682831 58.203125 12.12109375 C58.20882507 13.2501564 58.21452515 14.37921906 58.22039795 15.54249573 C58.22987045 17.94262754 58.23639081 20.34277249 58.24023438 22.74291992 C58.2498763 26.39069977 58.28085229 30.03790097 58.3125 33.68554688 C58.31903622 36.01822582 58.32428425 38.35090881 58.328125 40.68359375 C58.3404718 41.76628036 58.3528186 42.84896698 58.36553955 43.96446228 C58.33930852 53.02917602 57.26710966 61.70229552 50.80859375 68.53125 C43.06009436 74.82376786 33.58382896 75.51271513 24 75 C15.80308893 73.98977227 9.62083357 70.771782 4.41023254 64.24298096 C-0.42528864 56.55206362 -0.42493396 46.68401444 -0.29296875 37.890625 C-0.28872391 36.79780212 -0.28447906 35.70497925 -0.28010559 34.57904053 C-0.26349769 31.13576151 -0.22588002 27.69309797 -0.1875 24.25 C-0.17243002 21.89584187 -0.1587457 19.54167444 -0.14648438 17.1875 C-0.11365299 11.45810118 -0.06199695 5.72915443 0 0 Z " fill="#FFFFFF" transform="translate(731,247)"/>
<path d="M0 0 C1.02125975 -0.00445668 1.02125975 -0.00445668 2.063151 -0.0090034 C4.35547762 -0.01770824 6.64775213 -0.01920014 8.94009399 -0.02069092 C10.57919934 -0.02531781 12.21830361 -0.03034229 13.85740662 -0.03573608 C18.31815788 -0.048874 22.77889409 -0.05530768 27.23966169 -0.05974674 C30.02472227 -0.06267505 32.8097787 -0.06677938 35.59483719 -0.07125092 C44.30333417 -0.08492913 53.01182171 -0.09459436 61.72032869 -0.09845281 C71.78299799 -0.10293537 81.84553158 -0.12049109 91.90815961 -0.1494534 C99.67975087 -0.1710475 107.45130388 -0.18115586 115.22292483 -0.18249393 C119.86764717 -0.18354353 124.512242 -0.18948432 129.15693283 -0.20731354 C133.52520878 -0.22375516 137.89326082 -0.22596885 142.26155663 -0.21717453 C143.86599132 -0.21640207 145.47043786 -0.22077433 147.07484245 -0.23063278 C149.26313579 -0.2432918 151.45062884 -0.23750923 153.63891602 -0.22705078 C154.86414663 -0.22851734 156.08937725 -0.2299839 157.35173607 -0.2314949 C160.72058456 0.17338973 162.1090041 0.71310848 164.44644165 3.14044189 C165.33268221 6.62210122 165.78749187 9.06044954 164.69644165 12.51544189 C163.44644165 14.14044189 163.44644165 14.14044189 160.44644165 15.14044189 C158.21090881 15.24107468 155.97244812 15.27984389 153.73466492 15.28761292 C152.70599821 15.29312795 152.70599821 15.29312795 151.65655035 15.29875439 C149.35351503 15.30978717 147.05052483 15.31363432 144.74746704 15.31744385 C143.09836178 15.32370863 141.44925794 15.33035544 139.80015564 15.33735657 C135.31674153 15.35476063 130.83333808 15.36531596 126.34989858 15.3735621 C123.55025945 15.37871181 120.75062365 15.38478745 117.95098686 15.39107323 C109.19550952 15.41012067 100.44004061 15.42435472 91.68454653 15.4326852 C81.56977737 15.44246752 71.45522648 15.46881478 61.34053427 15.50918609 C53.52646128 15.53930768 45.71245103 15.55415016 37.89832109 15.55746621 C33.22897596 15.55982053 28.55986412 15.56883082 23.89058113 15.59392738 C19.5000848 15.61714514 15.10997646 15.62146693 10.71943474 15.611166 C9.1069294 15.61066905 7.49440535 15.61703632 5.88195801 15.63072205 C3.68257029 15.64834725 1.48458933 15.64138297 -0.71479797 15.62818909 C-1.94610412 15.63057744 -3.17741026 15.63296579 -4.44602871 15.63542652 C-7.55355835 15.14044189 -7.55355835 15.14044189 -9.96535587 13.3443327 C-12.19220914 10.25420943 -11.83885647 7.84931744 -11.55355835 4.14044189 C-10.89355835 4.14044189 -10.23355835 4.14044189 -9.55355835 4.14044189 C-9.22355835 3.15044189 -8.89355835 2.16044189 -8.55355835 1.14044189 C-5.67953027 -0.29657215 -3.21328957 0.00780615 0 0 Z " fill="#2A5BFB" transform="translate(37.553558349609375,278.85955810546875)"/>
<path d="M0 0 C14.19 0 28.38 0 43 0 C43 5.28 43 10.56 43 16 C34.75 16 26.5 16 18 16 C18 19.96 18 23.92 18 28 C19.64871094 27.98839844 21.29742188 27.97679687 22.99609375 27.96484375 C25.14322804 27.95546762 27.29036355 27.94636723 29.4375 27.9375 C30.52611328 27.92912109 31.61472656 27.92074219 32.73632812 27.91210938 C33.77080078 27.90888672 34.80527344 27.90566406 35.87109375 27.90234375 C36.82943115 27.89710693 37.78776855 27.89187012 38.77514648 27.88647461 C41 28 41 28 42 29 C42.07325436 31.6986905 42.09222351 34.36502556 42.0625 37.0625 C42.041875 39.681875 42.02125 42.30125 42 45 C34.08 45 26.16 45 18 45 C18 48.96 18 52.92 18 57 C26.25 57 34.5 57 43 57 C43 62.28 43 67.56 43 73 C37.03686834 73.02464574 31.07376605 73.042834 25.1105957 73.05493164 C23.08031702 73.05997278 21.05004198 73.06680557 19.01977539 73.07543945 C16.10822653 73.08751467 13.1967255 73.09323034 10.28515625 73.09765625 C8.91485008 73.10539818 8.91485008 73.10539818 7.51686096 73.11329651 C5.34424573 73.11349168 3.17172704 73.06211805 1 73 C0 72 0 72 -0.12025452 69.14634705 C-0.11803391 67.86949539 -0.11581329 66.59264374 -0.11352539 65.27709961 C-0.11367142 64.5746965 -0.11381744 63.8722934 -0.1139679 63.14860535 C-0.11326872 60.81648722 -0.10547617 58.484448 -0.09765625 56.15234375 C-0.09579208 54.53951562 -0.09436818 52.92668693 -0.09336853 51.31385803 C-0.08954323 47.06084643 -0.07971285 42.80786876 -0.06866455 38.55487061 C-0.05665612 33.45628308 -0.05204825 28.35768422 -0.04621124 23.25908661 C-0.03650109 15.50603411 -0.01734464 7.75305613 0 0 Z " fill="#FFFFFF" transform="translate(602,247)"/>
<path d="M0 0 C6.909375 -0.020625 13.81875 -0.04125 20.9375 -0.0625 C23.12109131 -0.071604 25.30468262 -0.08070801 27.55444336 -0.09008789 C29.2745762 -0.09300698 30.99470972 -0.09555555 32.71484375 -0.09765625 C33.61658325 -0.10277222 34.51832275 -0.10788818 35.4473877 -0.11315918 C37.63191745 -0.11346882 39.8163633 -0.0624587 42 0 C43 1 43 1 43.09765625 4.37890625 C43.09191424 5.77347492 43.07890228 7.16801597 43.0625 8.5625 C43.041875 11.016875 43.02125 13.47125 43 16 C34.75 16 26.5 16 18 16 C18 19.96 18 23.92 18 28 C25.59 28 33.18 28 41 28 C41 33.61 41 39.22 41 45 C33.41 45 25.82 45 18 45 C18 48.96 18 52.92 18 57 C25.92 57 33.84 57 42 57 C44.38979311 61.77958622 43 67.65626015 43 73 C28.81 73 14.62 73 0 73 C0 48.91 0 24.82 0 0 Z " fill="#FFFFFF" transform="translate(948,247)"/>
<path d="M0 0 C0.69222656 0.06703125 1.38445312 0.1340625 2.09765625 0.203125 C3.9375 0.75 3.9375 0.75 5.9375 3.75 C6.48575233 9.33120022 5.16891864 13.48647891 2.90234375 18.4921875 C2.58600479 19.21882599 2.26966583 19.94546448 1.94374084 20.69412231 C0.93272988 23.00985681 -0.09542279 25.31746885 -1.125 27.625 C-2.12133209 29.88844094 -3.11401161 32.15345903 -4.10641479 34.41862488 C-4.76720777 35.92592089 -5.42958219 37.43252459 -6.09353638 38.93843079 C-8.7446639 44.96639326 -11.27726148 51.03845531 -13.75758362 57.13851929 C-15.64504595 61.77612511 -17.65300291 66.34092573 -19.75 70.88671875 C-24.12307951 80.42679995 -28.23588461 90.03248866 -31.9453125 99.8515625 C-33.50209365 103.89048424 -35.22514381 107.83178258 -37.0625 111.75 C-37.59037109 112.88501953 -37.59037109 112.88501953 -38.12890625 114.04296875 C-40.80435099 119.62092549 -40.80435099 119.62092549 -43.0625 120.75 C-46.81361789 121.09732573 -49.22628638 121.20991749 -52.5625 119.375 C-55.01165539 115.08897807 -54.28592744 111.41834156 -53.0625 106.75 C-51.74267474 103.70776128 -50.24904615 100.81939691 -48.6796875 97.8984375 C-46.49261496 93.64051366 -44.87441516 89.23359856 -43.203125 84.75390625 C-41.98939669 81.55747794 -40.62713947 78.46544828 -39.2109375 75.35546875 C-37.67434496 71.86938975 -36.24894969 68.34078949 -34.8125 64.8125 C-32.30162298 58.65415746 -29.66814025 52.56393125 -26.9375 46.5 C-24.12663271 40.25318208 -21.54496554 33.96455241 -19.1328125 27.55078125 C-17.59960269 23.53869573 -15.85674324 19.65052877 -14.0625 15.75 C-13.49555272 14.46638466 -12.92919992 13.18250666 -12.36328125 11.8984375 C-11.74274692 10.51537387 -11.12164998 9.13256253 -10.5 7.75 C-10.20689941 7.07791504 -9.91379883 6.40583008 -9.61181641 5.71337891 C-8.8409262 4.02072488 -7.95851717 2.37987809 -7.0625 0.75 C-4.18049341 -0.21066886 -2.91744009 -0.32718954 0 0 Z " fill="#2A5AFC" transform="translate(137.0625,93.25)"/>
<path d="M0 0 C8.47137751 5.58819358 13.58027299 15.0705614 15.85546875 24.78515625 C17.65133054 34.63491665 18.19278848 44.28776755 18.16796875 54.28515625 C18.18408203 55.58324219 18.20019531 56.88132813 18.21679688 58.21875 C18.22438365 73.40746732 15.47005709 89.86299242 5.65625 102.03515625 C-0.90312517 108.40955989 -9.34385429 112.06427465 -18.45703125 112.09765625 C-28.70818177 111.88821163 -35.73209621 108.94537233 -43.14453125 101.78515625 C-54.9855473 88.27941686 -56.28264485 69.80157439 -56.39453125 52.72265625 C-56.40395752 51.63436523 -56.41338379 50.54607422 -56.4230957 49.42480469 C-56.35818314 33.18441594 -53.67566958 16.11740319 -42.33203125 3.8203125 C-30.14118675 -7.80523074 -14.24292153 -8.06839453 0 0 Z M-40.01953125 9.53515625 C-52.48338917 25.36367065 -51.62484652 49.26611123 -49.91748047 68.31884766 C-48.58561986 79.22507128 -45.60502522 92.22471483 -37.14453125 99.78515625 C-28.54594428 105.44764035 -21.05520865 107.25009651 -10.9296875 105.375 C-4.34350706 103.40566684 1.33546102 98.41950266 5.20703125 92.8359375 C11.39906485 81.18451551 12.0821025 68.53144778 12.15063477 55.60961914 C12.16206802 54.11766002 12.18238003 52.62573894 12.2121582 51.1340332 C12.5133056 35.98413187 10.36978486 22.15980783 2.16796875 9.09765625 C-3.6170399 3.3126476 -10.63635858 0.64049378 -18.70703125 0.41015625 C-27.70228337 0.50289081 -33.8259003 2.98797766 -40.01953125 9.53515625 Z " fill="#004BB0" transform="translate(800.14453125,72.21484375)"/>
<path d="M0 0 C5.61 0 11.22 0 17 0 C18 1 18 1 18.12025452 3.24623108 C18.1169236 4.73515114 18.1169236 4.73515114 18.11352539 6.25415039 C18.11344986 7.37523697 18.11337433 8.49632355 18.11329651 9.65138245 C18.10813522 10.8711528 18.10297394 12.09092316 18.09765625 13.34765625 C18.0962413 14.58921982 18.09482635 15.83078339 18.09336853 17.10997009 C18.08870591 20.41605491 18.07971497 23.72207146 18.06866455 27.02813721 C18.05844827 30.3996115 18.05387045 33.77109283 18.04882812 37.14257812 C18.03777395 43.76174018 18.0204966 50.38086071 18 57 C25.92 57 33.84 57 42 57 C42 62.28 42 67.56 42 73 C28.14 73 14.28 73 0 73 C0 48.91 0 24.82 0 0 Z " fill="#FFFFFF" transform="translate(440,247)"/>
<path d="M0 0 C5.94 0 11.88 0 18 0 C18.09065547 7.6847946 18.16391937 15.36938771 18.20724869 23.05458832 C18.22805315 26.62383519 18.25623769 30.19269474 18.30175781 33.76171875 C18.345474 37.21120466 18.36919071 40.66031992 18.37950897 44.11006165 C18.39041005 46.05539182 18.42159466 48.00057452 18.45318604 49.94567871 C18.4552791 58.26352119 17.72947202 64.05741529 11.8125 70.3125 C4.85468997 74.48718602 -2.35091327 76.31020835 -10.32421875 74.4609375 C-14.81952558 73.10863032 -18.92607963 71.68870445 -22 68 C-22.11485289 62.14250282 -19.51748596 57.16377352 -17 52 C-15.96875 52.66 -14.9375 53.32 -13.875 54 C-10.44279846 55.94537739 -7.99480616 56.72632839 -4 56 C-1.1226161 53.01822128 -0.61713831 50.85219661 -0.56762695 46.77246094 C-0.54783279 45.73168396 -0.52803864 44.69090698 -0.50764465 43.61859131 C-0.50125473 42.50179993 -0.49486481 41.38500854 -0.48828125 40.234375 C-0.47033005 39.08584045 -0.45237885 37.93730591 -0.43388367 36.75396729 C-0.37970659 33.08601552 -0.34586031 29.41819445 -0.3125 25.75 C-0.27933356 23.26300262 -0.24484454 20.7760225 -0.20898438 18.2890625 C-0.12397542 12.19280251 -0.05719891 6.09658179 0 0 Z " fill="#FFFFFF" transform="translate(701,247)"/>
<path d="M0 0 C5.61 0 11.22 0 17 0 C18 1 18 1 18.12025452 3.85365295 C18.1169236 5.76893044 18.1169236 5.76893044 18.11352539 7.72290039 C18.11367142 8.4253035 18.11381744 9.1277066 18.1139679 9.85139465 C18.11326872 12.18351278 18.10547617 14.515552 18.09765625 16.84765625 C18.09579208 18.46048438 18.09436818 20.07331307 18.09336853 21.68614197 C18.08954323 25.93915357 18.07971285 30.19213124 18.06866455 34.44512939 C18.05845069 38.7817743 18.05387096 43.11842467 18.04882812 47.45507812 C18.03809059 55.97006942 18.0204937 64.48502659 18 73 C12.06 73 6.12 73 0 73 C0 48.91 0 24.82 0 0 Z " fill="#FFFFFF" transform="translate(494,247)"/>
<path d="M0 0 C2.3046875 0.6015625 2.3046875 0.6015625 4.078125 2.45703125 C5.78960763 5.44940056 5.85922309 7.205032 5.3046875 10.6015625 C3.1171875 13.1015625 3.1171875 13.1015625 0.3046875 15.6015625 C-0.4996875 16.5915625 -1.3040625 17.5815625 -2.1328125 18.6015625 C-4.75711011 21.67391092 -7.59226249 24.02669122 -10.6953125 26.6015625 C-12.07237014 28.23228866 -13.42253361 29.8882063 -14.6953125 31.6015625 C-13.40533095 34.44351116 -12.05893663 36.47968193 -9.83203125 38.66015625 C-9.27451172 39.21123047 -8.71699219 39.76230469 -8.14257812 40.33007812 C-7.56185547 40.89404297 -6.98113281 41.45800781 -6.3828125 42.0390625 C-5.81369141 42.59916016 -5.24457031 43.15925781 -4.65820312 43.73632812 C-2.0641815 46.2886548 0.53937818 48.82351556 3.18359375 51.32421875 C5.3046875 53.6015625 5.3046875 53.6015625 5.9296875 56.6015625 C5.065473 60.74979208 3.78772807 62.20697211 0.3046875 64.6015625 C-2.61372336 64.99578332 -4.98836382 64.76021856 -7.6953125 63.6015625 C-9.38794196 61.96126952 -11.05068515 60.28998082 -12.6953125 58.6015625 C-14.37712834 56.93051055 -16.05943617 55.25995365 -17.7421875 53.58984375 C-19.15819057 52.1807336 -20.57418635 50.77161605 -21.98974609 49.36206055 C-22.966409 48.39047589 -23.94396005 47.41978327 -24.92236328 46.44995117 C-26.34380363 45.04059709 -27.76180073 43.62777287 -29.1796875 42.21484375 C-30.44377441 40.95861206 -30.44377441 40.95861206 -31.73339844 39.67700195 C-34.21587266 37.05088033 -34.63637072 36.03099547 -35.1328125 32.4140625 C-34.27633574 24.95047928 -28.19952296 21.16888607 -22.6953125 16.6015625 C-21.02464117 14.60490652 -19.35778264 12.60505216 -17.6953125 10.6015625 C-15.1953125 8.6015625 -15.1953125 8.6015625 -12.6953125 6.6015625 C-11.6125 4.9928125 -11.6125 4.9928125 -10.5078125 3.3515625 C-6.90370678 -0.17245198 -4.85778997 -0.04429596 0 0 Z " fill="#2958FC" transform="translate(77.6953125,121.3984375)"/>
<path d="M0 0 C5.66158127 0.96367341 8.85475602 6.22691467 12.375 10.359375 C14.59514483 12.80722699 17.02807915 14.84134927 19.57421875 16.9375 C22.10893793 19.17437448 24.08551137 21.74229117 26.203125 24.375 C26.96625 25.014375 27.729375 25.65375 28.515625 26.3125 C30.203125 28.375 30.203125 28.375 30.828125 31.6875 C29.78829283 37.82250983 25.75507704 41.18207997 21.078125 45 C18.18000394 47.22951184 18.18000394 47.22951184 16.203125 49.875 C14.53165882 51.96433273 13.06654879 53.40130044 11.015625 55.0625 C8.18665267 57.06890251 8.18665267 57.06890251 7.203125 59.375 C6.543125 59.375 5.883125 59.375 5.203125 59.375 C5.203125 60.035 5.203125 60.695 5.203125 61.375 C4.543125 61.375 3.883125 61.375 3.203125 61.375 C3.203125 62.035 3.203125 62.695 3.203125 63.375 C-3.90530873 64.82078313 -3.90530873 64.82078313 -7.796875 62.875 C-9.796875 60.375 -9.796875 60.375 -10.421875 56.9375 C-9.63628172 52.45961832 -8.19087981 51.31647084 -4.796875 48.375 C-3.9925 47.385 -3.188125 46.395 -2.359375 45.375 C0.31844798 42.23998773 3.00490073 39.96079835 6.203125 37.375 C7.55411603 36.05956137 8.89518169 34.73324882 10.203125 33.375 C8.75269591 30.02915036 6.92573675 27.87445964 4.32421875 25.3359375 C3.56818359 24.59085938 2.81214844 23.84578125 2.03320312 23.078125 C1.24365234 22.30984375 0.45410156 21.5415625 -0.359375 20.75 C-1.92535391 19.21836831 -3.48926439 17.68461805 -5.05078125 16.1484375 C-5.74502197 15.47216309 -6.4392627 14.79588867 -7.15454102 14.09912109 C-9.36086283 11.78292596 -9.76658811 10.72329924 -10.046875 7.5 C-9.796875 4.375 -9.796875 4.375 -8.859375 2 C-5.95211658 -0.29056724 -3.626405 -0.18716929 0 0 Z " fill="#2959FC" transform="translate(152.796875,121.625)"/>
</svg>
